{
  "source": "C:\\Users\\Peter\\Desktop\\stuff\\MIUN\\quantitative_research\\video_compression\\videos\\BVI-HD\\BVI-HD_CDVL_videos\\ORIG\\Grass_1920x1080_60fps.mp4",
  "output": "C:\\Users\\Peter\\Desktop\\stuff\\MIUN\\quantitative_research\\video_compression\\compressed_videos\\BVI-HD\\h264\\8\\Grass_1920x1080_60fps_h264.mp4",
  "codec": "h264",
  "ok": "Input #0, mov,mp4,m4a,3gp,3g2,mj2, from 'C:\\Users\\Peter\\Desktop\\stuff\\MIUN\\quantitative_research\\video_compression\\videos\\BVI-HD\\BVI-HD_CDVL_videos\\ORIG\\Grass_1920x1080_60fps.mp4':\n  Metadata:\n    major_brand     : isom\n    minor_version   : 512\n    compatible_brands: isomiso2avc1mp41\n    encoder         : Lavf54.28.101\n  Duration: 00:00:05.00, start: 0.000000, bitrate: 655968 kb/s\n  Stream #0:0[0x1](und): Video: h264 (High 4:4:4 Predictive) (avc1 / 0x31637661), yuv420p(progressive), 1920x1080, 655963 kb/s, 60 fps, 60 tbr, 60 tbn (default)\n    Metadata:\n      handler_name    : VideoHandler\n      vendor_id       : [0][0][0][0]\n[out#0/mp4 @ 0000010c7b007d40] Codec AVOption b:a (set bitrate (in bits/s)) has not been used for any stream. The most likely reason is either wrong type (e.g. a video option with no video streams) or that it is a private option of some decoder which was not actually used for any stream.\nStream mapping:\n  Stream #0:0 -> #0:0 (h264 (native) -> h264 (libx264))\nPress [q] to stop, [?] for help\n[libx264 @ 0000010c7bb80ac0] using cpu capabilities: MMX2 SSE2Fast SSSE3 SSE4.2 AVX FMA3 BMI2 AVX2\n[libx264 @ 0000010c7bb80ac0] profile High, level 5.0, 4:2:0, 8-bit\n[libx264 @ 0000010c7bb80ac0] 264 - core 165 r3222 b35605a - H.264/MPEG-4 AVC codec - Copyleft 2003-2025 - http://www.videolan.org/x264.html - options: cabac=1 ref=5 deblock=1:0:0 analyse=0x3:0x113 me=hex subme=8 psy=1 psy_rd=1.00:0.00 mixed_ref=1 me_range=16 chroma_me=1 trellis=2 8x8dct=1 cqm=0 deadzone=21,11 fast_pskip=1 chroma_qp_offset=-2 threads=18 lookahead_threads=3 sliced_threads=0 nr=0 decimate=1 interlaced=0 bluray_compat=0 constrained_intra=0 bframes=3 b_pyramid=2 b_adapt=1 b_bias=0 direct=3 weightb=1 open_gop=0 weightp=2 keyint=250 keyint_min=25 scenecut=40 intra_refresh=0 rc_lookahead=50 rc=cbr mbtree=1 bitrate=8000 ratetol=1.0 qcomp=0.60 qpmin=0 qpmax=69 qpstep=4 vbv_maxrate=8000 vbv_bufsize=8000 nal_hrd=none filler=0 ip_ratio=1.40 aq=1:1.00\nOutput #0, mp4, to 'C:\\Users\\Peter\\Desktop\\stuff\\MIUN\\quantitative_research\\video_compression\\compressed_videos\\BVI-HD\\h264\\8\\Grass_1920x1080_60fps_h264.mp4':\n  Metadata:\n    major_brand     : isom\n    minor_version   : 512\n    compatible_brands: isomiso2avc1mp41\n    encoder         : Lavf62.3.100\n  Stream #0:0(und): Video: h264 (avc1 / 0x31637661), yuv420p(tv, progressive), 1920x1080, q=2-31, 8000 kb/s, 60 fps, 15360 tbn (default)\n    Metadata:\n      encoder         : Lavc62.11.100 libx264\n      handler_name    : VideoHandler\n      vendor_id       : [0][0][0][0]\n    Side data:\n      cpb: bitrate max/min/avg: 8000000/0/8000000 buffer size: 8000000 vbv_delay: N/A\nframe=    0 fps=0.0 q=0.0 size=       0KiB time=N/A bitrate=N/A speed=N/A elapsed=0:00:01.09    \nframe=    0 fps=0.0 q=0.0 size=       0KiB time=N/A bitrate=N/A speed=N/A elapsed=0:00:01.61    \nframe=    0 fps=0.0 q=0.0 size=       0KiB time=N/A bitrate=N/A speed=N/A elapsed=0:00:02.23    \nframe=   19 fps=6.6 q=36.0 size=     256KiB time=00:00:00.20 bitrate=10487.7kbits/s speed=0.0694x elapsed=0:00:02.88    \nframe=   36 fps= 10 q=35.0 size=     512KiB time=00:00:00.51 bitrate=8118.7kbits/s speed=0.146x elapsed=0:00:03.53    \nframe=   45 fps= 11 q=34.0 size=     512KiB time=00:00:00.71 bitrate=5853.1kbits/s speed=0.174x elapsed=0:00:04.12    \nframe=   61 fps= 13 q=34.0 size=     768KiB time=00:00:00.98 bitrate=6398.5kbits/s speed=0.21x elapsed=0:00:04.68    \nframe=   81 fps= 15 q=35.0 size=    1024KiB time=00:00:01.31 bitrate=6371.4kbits/s speed=0.252x elapsed=0:00:05.23    \nframe=   93 fps= 16 q=35.0 size=    1024KiB time=00:00:01.45 bitrate=5785.5kbits/s speed=0.25x elapsed=0:00:05.79    \nframe=  110 fps= 17 q=35.0 size=    1280KiB time=00:00:01.78 bitrate=5880.1kbits/s speed=0.278x elapsed=0:00:06.42    \nframe=  129 fps= 18 q=35.0 size=    1536KiB time=00:00:02.06 bitrate=6088.7kbits/s speed=0.294x elapsed=0:00:07.03    \nframe=  141 fps= 18 q=35.0 size=    1792KiB time=00:00:02.31 bitrate=6336.9kbits/s speed=0.303x elapsed=0:00:07.63    \nframe=  161 fps= 20 q=35.0 size=    2048KiB time=00:00:02.65 bitrate=6331.2kbits/s speed=0.323x elapsed=0:00:08.21    \nframe=  181 fps= 21 q=34.0 size=    2304KiB time=00:00:02.98 bitrate=6326.7kbits/s speed=0.342x elapsed=0:00:08.73    \nframe=  205 fps= 22 q=35.0 size=    2560KiB time=00:00:03.38 bitrate=6198.6kbits/s speed=0.364x elapsed=0:00:09.28    \nframe=  229 fps= 23 q=35.0 size=    2816KiB time=00:00:03.78 bitrate=6097.5kbits/s speed=0.384x elapsed=0:00:09.85    \nframe=  250 fps= 24 q=35.0 size=    3072KiB time=00:00:04.13 bitrate=6088.6kbits/s speed=0.398x elapsed=0:00:10.38    \nframe=  271 fps= 25 q=35.0 size=    3584KiB time=00:00:04.48 bitrate=6548.8kbits/s speed=0.41x elapsed=0:00:10.93    \n[mp4 @ 0000010c7af79ac0] Starting second pass: moving the moov atom to the beginning of the file\n[out#0/mp4 @ 0000010c7b007d40] video:4028KiB audio:0KiB subtitle:0KiB other streams:0KiB global headers:0KiB muxing overhead: 0.109568%\nframe=  300 fps= 26 q=-1.0 Lsize=    4032KiB time=00:00:04.96 bitrate=6650.6kbits/s speed=0.437x elapsed=0:00:11.36    \n[libx264 @ 0000010c7bb80ac0] frame I:2     Avg QP:29.41  size:336838\n[libx264 @ 0000010c7bb80ac0] frame P:76    Avg QP:32.56  size: 39238\n[libx264 @ 0000010c7bb80ac0] frame B:222   Avg QP:38.89  size:  2108\n[libx264 @ 0000010c7bb80ac0] consecutive B-frames:  1.3%  0.0%  0.0% 98.7%\n[libx264 @ 0000010c7bb80ac0] mb I  I16..4:  0.0% 98.3%  1.7%\n[libx264 @ 0000010c7bb80ac0] mb P  I16..4:  0.0%  0.3%  0.0%  P16..4: 38.9% 19.9% 11.1%  0.0%  0.0%    skip:29.9%\n[libx264 @ 0000010c7bb80ac0] mb B  I16..4:  0.0%  0.0%  0.0%  B16..8: 22.1%  0.5%  0.2%  direct: 0.3%  skip:77.0%  L0:20.3% L1:78.0% BI: 1.7%\n[libx264 @ 0000010c7bb80ac0] 8x8 transform intra:97.9% inter:60.4%\n[libx264 @ 0000010c7bb80ac0] direct mvs  spatial:95.5% temporal:4.5%\n[libx264 @ 0000010c7bb80ac0] coded y,uvDC,uvAC intra: 99.5% 99.8% 97.9% inter: 7.2% 10.8% 3.1%\n[libx264 @ 0000010c7bb80ac0] i16 v,h,dc,p:  0% 100%  0%  0%\n[libx264 @ 0000010c7bb80ac0] i8 v,h,dc,ddl,ddr,vr,hd,vl,hu: 13%  9% 10%  8% 12% 11% 10% 13% 14%\n[libx264 @ 0000010c7bb80ac0] i4 v,h,dc,ddl,ddr,vr,hd,vl,hu:  9%  4%  2%  9% 19% 19% 15% 13% 11%\n[libx264 @ 0000010c7bb80ac0] i8c dc,h,v,p: 67%  8% 11% 14%\n[libx264 @ 0000010c7bb80ac0] Weighted P-Frames: Y:0.0% UV:0.0%\n[libx264 @ 0000010c7bb80ac0] ref P L0: 62.9% 13.6% 13.8%  3.1%  6.6%\n[libx264 @ 0000010c7bb80ac0] ref B L0: 86.3%  8.2%  4.0%  1.6%\n[libx264 @ 0000010c7bb80ac0] ref B L1: 94.9%  5.1%\n[libx264 @ 0000010c7bb80ac0] kb/s:6597.80\n",
  "seconds": 11.759526252746582,
  "probe_out": {}
}